# xmcd CD database file
#
# Track frame offsets:
#	150
#	12967
#	25115
#	37205
#	50997
#	61290
#	75752
#	85670
#	99925
#	108507
#	122470
#	134727
#	144417
#	158530
#
# Disc length: 2277 seconds
#
# Revision: 0
# Processed by: cddbd v1.4b42PL1 Copyright (c) Steve Scherf et al.
# Submitted via: Feurio! 1.61 - http://www.feurio.com
#
DISCID=ac08e30e
DTITLE=Various Artist - Country Road Vol.4
DYEAR=1900
DGENRE=
TTITLE0=Dave Dudley - Me And Ole C. B.
TTITLE1=Ferlin Husky - Out Of The Clear Blue Sky
TTITLE2=Freddy Quinn - Old Smoky
TTITLE3=Ronnie Rogers - Diane (Do THe Wrong Again With Me)
TTITLE4=Dave Dudley - Truck Driving Son-Of-A-Gun
TTITLE5=Bobby Bare - Leaving On A Jetplane
TTITLE6=Rick Johnson - Please, Don't Love Me
TTITLE7=Bobby Bare - A Million Miles To The City
TTITLE8=Freddy Quinn - Oh, Susanna
TTITLE9=George Kent - Doogie Ray
TTITLE10=Rick Pilgreen - How Come It Took So Long To Say Goodbye
TTITLE11=Dave Dudley - Rollin' On Your Track
TTITLE12=Ferlin Husky - Little Tom
TTITLE13=George Kent - Hello, I'm A Jukebox
EXTD=
EXTT0=
EXTT1=
EXTT2=
EXTT3=
EXTT4=
EXTT5=
EXTT6=
EXTT7=
EXTT8=
EXTT9=
EXTT10=
EXTT11=
EXTT12=
EXTT13=
PLAYORDER=
